<?xml version="1.0" encoding="UTF-8"?>
<!DOCTYPE svg PUBLIC "-//W3C//DTD SVG 1.1//EN" "http://www.w3.org/Graphics/SVG/1.1/DTD/svg11.dtd">
<!-- Creator: CorelDRAW Home & Student X8 -->
<svg xmlns="http://www.w3.org/2000/svg" xml:space="preserve" width="1.99999in" height="0.499992in" version="1.1" style="shape-rendering:geometricPrecision; text-rendering:geometricPrecision; image-rendering:optimizeQuality; fill-rule:evenodd; clip-rule:evenodd"
viewBox="0 0 2000 500"
 xmlns:xlink="http://www.w3.org/1999/xlink">
 <defs>
  <style type="text/css">
   <![CDATA[
    .fil0 {fill:black}
    .fil2 {fill:#0EADD4}
    .fil1 {fill:#D5D6DF}
   ]]>
  </style>
 </defs>
 <rect class="fil0" width="2000" height="500"/>
 <g id="Layer_x0020_1">
  <metadata id="CorelCorpID_0Corel-Layer"/>
  <path class="fil1" d="M1008 324c2,-2 1,-3 1,-6 0,-24 1,-47 0,-70 -1,-11 -4,-9 -13,-9 -10,0 -21,0 -31,-1 -9,0 -53,-1 -59,1 -2,2 -3,5 -4,8 -1,6 0,12 0,19 -2,17 -1,20 16,20 8,0 22,1 14,14 -11,17 -52,11 -67,3 -14,-8 -19,-16 -24,-32 -6,-17 -2,-45 10,-57 7,-7 16,-14 25,-16 14,-3 28,-1 40,10 6,5 7,13 13,14 9,1 20,0 29,0 13,0 26,0 39,0 0,0 12,2 11,-7 0,-8 -9,-27 -13,-34 -10,-15 -28,-26 -45,-31 -28,-8 -55,-9 -85,-6 -23,2 -50,9 -70,24 -8,5 -19,20 -23,29 -10,25 -12,40 -11,66 1,24 9,50 25,67 32,33 84,35 125,32 28,-2 54,-10 79,-23 8,-4 12,-8 18,-15z"/>
  <path class="fil1" d="M542 225c17,-1 34,0 51,0 11,0 9,-1 15,-11 15,-26 80,-16 63,7 -8,9 -24,12 -34,15 -15,5 -30,9 -44,14 -7,3 -13,6 -20,8 -14,6 -34,27 -41,41 -6,13 -11,37 -10,52 1,7 4,5 10,5 12,0 23,1 35,1 56,0 112,0 168,-1 3,0 9,0 11,-1 2,-2 1,-7 1,-9 1,-10 1,-20 1,-31 0,-1 0,-6 -1,-8 -2,-2 -10,-2 -13,-2 -6,0 -12,0 -19,0l0 0c-31,0 -61,0 -92,1 -6,0 -28,0 -13,-9 10,-6 32,-12 44,-14 13,-1 25,-2 37,-4 28,-6 50,-16 59,-42 3,-15 2,-37 -5,-50 -13,-23 -40,-34 -64,-37 -24,-2 -56,-3 -80,1 -21,4 -45,11 -60,29 -3,5 -6,9 -9,14 -4,8 -7,17 -6,26 2,8 10,5 16,5z"/>
  <path class="fil1" d="M1445 262c13,-24 40,-29 61,-17 13,7 25,25 20,42 -6,20 -23,31 -42,30 -16,0 -28,-5 -38,-20 -8,-11 -7,-23 -1,-35zm22 -60c-5,2 -19,9 -23,8 -6,-1 -4,-13 -4,-18 0,-5 2,-38 -1,-41 -3,-3 -54,-4 -60,-2 -8,3 -6,15 -6,23 0,17 0,34 0,52 0,14 -2,127 2,131 2,3 47,2 54,2 19,-1 1,-18 30,-6 18,8 28,10 47,10 19,0 38,-6 55,-15 30,-15 44,-47 38,-82 -7,-41 -41,-60 -74,-66 -19,-3 -40,-3 -58,4z"/>
  <path class="fil1" d="M1692 305c7,-13 40,-10 52,-10 12,0 26,2 9,16 -13,10 -34,12 -50,9 -7,-2 -15,-5 -11,-15zm68 -48c-3,1 -7,1 -10,1 -40,-1 -113,-9 -138,34 -13,23 0,47 19,58 28,18 78,17 108,8 7,-3 11,-6 17,-8 11,-4 10,6 22,9 11,2 30,0 42,0 6,0 22,2 27,-2 5,-4 4,-16 4,-23 -1,-21 -15,-7 -17,-21 -2,-12 0,-43 0,-58 0,-20 -4,-33 -22,-42 -15,-8 -44,-14 -61,-15 -18,-2 -31,-2 -49,-1 -13,1 -22,1 -35,4 -7,2 -36,8 -38,15 -3,6 11,21 15,26 8,11 7,15 22,10 14,-5 24,-7 38,-9 11,-1 57,-5 60,9l0 1c0,3 -2,4 -4,4z"/>
  <path class="fil1" d="M1252 240c22,7 33,21 29,45 -3,20 -20,29 -38,32 -16,1 -32,-3 -44,-15 -11,-12 -12,-35 -1,-48 11,-14 30,-18 47,-15 3,0 5,1 7,1zm86 -12c-27,-33 -73,-38 -111,-37 -39,1 -83,11 -102,52 -7,16 -8,37 -5,54 7,34 33,50 61,58 18,6 51,8 70,7 23,-1 53,-5 72,-21 13,-11 25,-28 28,-46 4,-23 2,-48 -13,-67z"/>
  <path class="fil1" d="M1030 218c0,43 0,86 0,128 0,4 0,12 4,13 5,1 15,0 20,0 6,1 42,1 45,-1 4,-3 2,-58 2,-68 0,-44 0,-88 0,-132 0,-12 -2,-12 -14,-11 -13,0 -27,0 -40,0 -5,0 -14,-1 -16,5 -2,3 -1,25 -1,31 0,11 0,23 0,35z"/>
  <path class="fil1" d="M1938 340c-1,-29 -1,-59 -1,-87 0,-29 0,-58 1,-87 0,-17 -2,-19 -18,-19 -15,1 -29,0 -44,1 -9,0 -8,3 -8,13 -1,53 0,107 0,160 0,7 -1,30 1,34 3,4 14,3 17,3 13,0 26,0 39,0 14,0 13,-4 13,-18z"/>
  <path class="fil2" d="M64 314c29,88 105,141 191,141 55,1 111,-25 148,-70 27,-31 45,-71 49,-114 1,-24 -6,-19 -26,-20 -13,-1 -29,-3 -38,8 -4,6 -6,22 -7,29 -14,62 -74,102 -132,99 -80,-3 -143,-78 -125,-165 20,-88 116,-130 191,-90 4,2 43,23 20,24 -27,1 -54,-1 -81,0 -42,1 -80,27 -91,72 -17,66 36,126 99,120 41,-4 77,-36 85,-80 3,-20 -7,-17 -23,-17 -9,0 -29,-2 -35,5 -7,9 -8,20 -21,27 -26,13 -57,-12 -46,-43 9,-27 35,-23 57,-23 25,1 137,7 152,-1 21,-13 7,-49 -3,-65 -24,-42 -64,-73 -107,-90 -16,-5 -32,-9 -49,-12 -15,-1 -28,-1 -43,1 -29,4 -55,14 -81,29 -54,35 -91,97 -93,165 -1,25 2,45 9,70z"/>
 </g>
</svg>
