<svg xmlns="http://www.w3.org/2000/svg" width="16" height="15.67" viewBox="0 0 16 15.67">
  <path id="Icon_metro-cancel" data-name="Icon metro-cancel" d="M10.571,1.928a7.919,7.919,0,0,0-8,7.835,7.919,7.919,0,0,0,8,7.835,7.919,7.919,0,0,0,8-7.835,7.919,7.919,0,0,0-8-7.835Zm0,14.2a6.434,6.434,0,0,1-6.5-6.366,6.434,6.434,0,0,1,6.5-6.366,6.434,6.434,0,0,1,6.5,6.366A6.434,6.434,0,0,1,10.571,16.129Zm2.5-10.283-2.5,2.448-2.5-2.448-1.5,1.469,2.5,2.448-2.5,2.448,1.5,1.469,2.5-2.448,2.5,2.448,1.5-1.469-2.5-2.448,2.5-2.448Z" transform="translate(-2.571 -1.928)" fill="#3bc1cf"/>
</svg>
