<svg xmlns="http://www.w3.org/2000/svg" width="18.094" height="17.634" viewBox="0 0 18.094 17.634">
  <path id="Icon_ionic-ios-search" data-name="Icon ionic-ios-search" d="M22.382,20.851,17.35,15.9a6.9,6.9,0,0,0,1.579-4.384,7.12,7.12,0,0,0-7.214-7.024A7.124,7.124,0,0,0,4.5,11.522a7.12,7.12,0,0,0,7.214,7.024,7.307,7.307,0,0,0,4.547-1.57l5,4.917a.789.789,0,0,0,1.093.028A.746.746,0,0,0,22.382,20.851ZM11.714,17.036A5.7,5.7,0,0,1,7.709,15.42a5.409,5.409,0,0,1,0-7.8,5.771,5.771,0,0,1,8.01,0,5.409,5.409,0,0,1,0,7.8A5.7,5.7,0,0,1,11.714,17.036Z" transform="translate(-4.5 -4.493)" fill="#3bc1cf"/>
</svg>
