<svg xmlns="http://www.w3.org/2000/svg" width="19.5" height="19.5" viewBox="0 0 19.5 19.5">
  <path id="Icon_awesome-arrow-alt-circle-right" data-name="Icon awesome-arrow-alt-circle-right" d="M10.313.563a9.75,9.75,0,1,0,9.75,9.75A9.748,9.748,0,0,0,10.313.563Zm4.56,11.48h-4.56V14.83a.472.472,0,0,1-.806.334L5.013,10.647a.467.467,0,0,1,0-.664L9.507,5.461a.472.472,0,0,1,.806.334V8.583h4.56a.473.473,0,0,1,.472.472v2.516A.473.473,0,0,1,14.873,12.042Z" transform="translate(-0.563 -0.563)" fill="#3bc1cf"/>
</svg>
