<?xml version="1.0" encoding="UTF-8"?>
<!DOCTYPE svg PUBLIC "-//W3C//DTD SVG 1.1//EN" "http://www.w3.org/Graphics/SVG/1.1/DTD/svg11.dtd">
<!-- Creator: CorelDRAW Home & Student X8 -->
<svg xmlns="http://www.w3.org/2000/svg" xml:space="preserve" width="1.66666in" height="1.66666in" version="1.1" style="shape-rendering:geometricPrecision; text-rendering:geometricPrecision; image-rendering:optimizeQuality; fill-rule:evenodd; clip-rule:evenodd"
viewBox="0 0 1667 1667"
 xmlns:xlink="http://www.w3.org/1999/xlink">
 <defs>
  <style type="text/css">
   <![CDATA[
    .fil0 {fill:#D4F1F5}
   ]]>
  </style>
 </defs>
 <g id="Layer_x0020_1">
  <metadata id="CorelCorpID_0Corel-Layer"/>
  <path class="fil0" d="M296 1418l2 0 1090 -1 1 -69 -140 -4c-21,1 -28,-3 -46,-3 -32,-1 -65,0 -97,0 -33,0 -60,-3 -97,-3 -33,0 -58,-6 -93,-3 -68,5 -214,6 -287,6l0 -80c54,0 204,-18 264,-20 136,-4 311,37 440,37 0,-56 12,-72 -32,-78 -78,-12 -324,-71 -372,-66 -38,3 -67,7 -103,11 -31,3 -65,8 -97,13 -32,4 -66,13 -100,13l0 -80c14,0 31,-5 46,-8 16,-3 29,-6 44,-9l179 -34c49,-9 51,-3 92,7 40,10 314,91 343,91 5,-22 0,-42 0,-70l-336 -122c-80,-27 -78,-17 -184,9l-135 35c-14,4 -33,11 -49,11 0,-22 -5,-36 -3,-60 3,-24 15,-24 36,-30 17,-5 34,-9 53,-15 66,-19 133,-44 200,-62 26,-7 25,-5 50,5 31,14 59,26 90,40l183 80c26,11 68,36 95,39 5,-22 0,-42 0,-70l-334 -177c-77,-38 -56,-38 -181,12 -27,12 -170,66 -189,68l0 -80c41,-9 148,-60 187,-77 31,-13 63,-26 93,-40 41,-18 49,1 89,25 58,35 296,190 335,199 0,-96 12,-66 -134,-164l-178 -122c-19,-12 -68,-61 -93,-52 -23,8 -203,99 -253,120 -20,8 -35,15 -52,24l0 64c-30,2 -33,27 -73,16 -63,-18 -46,-26 -144,24 -22,11 -46,19 -67,33l0 70c20,-2 60,-21 78,-29 15,-6 24,-9 38,-15 12,-5 27,-13 38,-16l0 70c-46,24 -107,34 -154,57l0 70c22,0 58,-14 77,-21 19,-6 56,-21 77,-23l0 70c-35,17 -126,27 -154,40 0,73 -16,77 47,64 35,-7 72,-17 107,-20l0 73c-33,0 -124,13 -154,20l0 70c58,0 97,-7 154,-7l0 70c-33,0 -65,0 -97,0 -36,0 -60,4 -97,4l-3 70z"/>
  <path class="fil0" d="M1375 1390c-9,8 -50,4 -64,4 -322,0 -653,-3 -973,0 -4,0 -12,0 -16,0l-15 -3 -1 0c-29,-2 -16,6 -47,-26 -25,-25 -79,-98 -96,-126 -34,-56 -69,-134 -87,-206 -75,-298 18,-561 219,-763l83 -67c120,-90 293,-144 446,-144 107,0 177,13 255,39 118,39 191,87 280,161 47,40 99,108 134,160 10,16 19,29 28,47 51,103 71,155 89,280 12,90 2,197 -17,271 -14,56 -33,111 -57,162l-27 48c-9,15 -17,29 -27,44 -30,43 -49,66 -84,102 -21,22 -12,16 -23,17zm-588 -1364l91 0c400,24 769,354 769,813 0,217 -92,424 -241,572 -128,128 -342,235 -529,234 -17,0 -24,3 -36,3l-17 0c-15,0 -23,-3 -42,-3 -19,0 -30,-2 -48,-4 -136,-14 -256,-66 -366,-139l-72 -57c-45,-41 -31,-31 -63,-63 -54,-55 -112,-145 -142,-214 -32,-75 -59,-155 -66,-238 -3,-29 -7,-64 -7,-94 0,-119 35,-267 90,-368l57 -93c45,-68 134,-157 202,-202 98,-66 167,-97 280,-125 46,-12 93,-19 140,-22z"/>
 </g>
</svg>
