<?xml version="1.0" encoding="UTF-8"?>
<!DOCTYPE svg PUBLIC "-//W3C//DTD SVG 1.1//EN" "http://www.w3.org/Graphics/SVG/1.1/DTD/svg11.dtd">
<!-- Creator: CorelDRAW Home & Student X8 -->
<svg xmlns="http://www.w3.org/2000/svg" xml:space="preserve" width="1.66666in" height="1.66666in" version="1.1" style="shape-rendering:geometricPrecision; text-rendering:geometricPrecision; image-rendering:optimizeQuality; fill-rule:evenodd; clip-rule:evenodd"
viewBox="0 0 1667 1667"
 xmlns:xlink="http://www.w3.org/1999/xlink">
 <defs>
  <style type="text/css">
   <![CDATA[
    .fil0 {fill:#D4F1F5}
   ]]>
  </style>
 </defs>
 <g id="Layer_x0020_1">
  <metadata id="CorelCorpID_0Corel-Layer"/>
  <path class="fil0" d="M289 1391c-31,-16 -109,-126 -131,-165 -38,-65 -65,-128 -85,-209 -118,-472 235,-968 759,-968 603,1 979,652 674,1179 -27,45 -92,134 -130,164 -1,-1 -2,-2 -2,-2l-9 -15c-3,-6 -5,-12 -9,-18 -40,-78 -99,-132 -181,-173 -184,-91 -567,-92 -751,38 -91,64 -108,132 -135,169zm1168 -1089c-8,-4 -2,0 -7,-5 -1,0 -3,-3 -4,-3 -36,-40 -59,-64 -102,-98 -35,-29 -83,-63 -130,-87 -107,-54 -199,-82 -337,-93 -220,-7 -407,61 -540,166 -137,109 -238,245 -289,422 -70,242 -20,512 120,701 52,71 104,125 175,179 189,142 445,202 696,136 180,-47 317,-143 429,-277 102,-123 184,-314 180,-529 -6,-317 -178,-478 -191,-512z"/>
  <path class="fil0" d="M800 420c-170,18 -312,166 -293,358 18,168 169,313 360,291 168,-18 311,-168 290,-359 -19,-167 -168,-310 -357,-290z"/>
 </g>
</svg>
